<mxfile host="app.diagrams.net" agent="Mozilla/5.0 (Windows NT 10.0; Win64; x64) AppleWebKit/537.36 (KHTML, like Gecko) Chrome/133.0.0.0 Safari/537.36" version="26.0.16">
  <diagram name="Page-1" id="dYAAqQN164_OkqlJN7os">
    <mxGraphModel dx="1281" dy="536" grid="0" gridSize="10" guides="1" tooltips="1" connect="1" arrows="1" fold="1" page="0" pageScale="1" pageWidth="850" pageHeight="1100" math="0" shadow="0">
      <root>
        <mxCell id="0" />
        <mxCell id="1" parent="0" />
        <mxCell id="seVJ21GC20MgT60zQvt1-10" value="Employee onboarding" style="swimlane;childLayout=stackLayout;resizeParent=1;resizeParentMax=0;horizontal=0;startSize=20;horizontalStack=0;html=1;" vertex="1" parent="1">
          <mxGeometry x="-409" y="2" width="480" height="360" as="geometry" />
        </mxCell>
        <mxCell id="seVJ21GC20MgT60zQvt1-11" value="Employee" style="swimlane;startSize=20;horizontal=0;html=1;" vertex="1" parent="seVJ21GC20MgT60zQvt1-10">
          <mxGeometry x="20" width="460" height="120" as="geometry" />
        </mxCell>
        <mxCell id="seVJ21GC20MgT60zQvt1-14" value="" style="ellipse;whiteSpace=wrap;html=1;aspect=fixed;" vertex="1" parent="seVJ21GC20MgT60zQvt1-11">
          <mxGeometry x="42" y="14" width="80" height="80" as="geometry" />
        </mxCell>
        <mxCell id="seVJ21GC20MgT60zQvt1-16" value="New employee hired" style="text;strokeColor=none;fillColor=none;html=1;align=center;verticalAlign=middle;whiteSpace=wrap;rounded=0;fontSize=16;" vertex="1" parent="seVJ21GC20MgT60zQvt1-11">
          <mxGeometry x="52" y="41" width="60" height="30" as="geometry" />
        </mxCell>
        <mxCell id="seVJ21GC20MgT60zQvt1-12" value="HR" style="swimlane;startSize=20;horizontal=0;html=1;" vertex="1" parent="seVJ21GC20MgT60zQvt1-10">
          <mxGeometry x="20" y="120" width="460" height="120" as="geometry" />
        </mxCell>
        <mxCell id="seVJ21GC20MgT60zQvt1-13" value="IT" style="swimlane;startSize=20;horizontal=0;html=1;" vertex="1" parent="seVJ21GC20MgT60zQvt1-10">
          <mxGeometry x="20" y="240" width="460" height="120" as="geometry" />
        </mxCell>
      </root>
    </mxGraphModel>
  </diagram>
</mxfile>
